<?xml version="1.0" encoding="utf-8"?>
<!-- Generator: Adobe Illustrator 26.3.1, SVG Export Plug-In . SVG Version: 6.00 Build 0)  -->
<svg version="1.1" id="Layer_1" xmlns="http://www.w3.org/2000/svg" xmlns:xlink="http://www.w3.org/1999/xlink" x="0px" y="0px"
	 viewBox="0 0 16 16" style="enable-background:new 0 0 16 16;" xml:space="preserve">
<g>
	<g>
		<path d="M9.01,3.01c3.1,0,5.23,1.51,5.82,4.14c0.78,3.46-1.6,5.29-3.97,5.17c-1.97-0.1-3.44-2.03-3.03-3.96
			c0.22-1.07,1.22-1.79,2.46-1.79c1.16,0,2.09,0.72,2.3,1.79c0.03,0.16,0.03,0.34,0.02,0.5c-0.02,0.22-0.1,0.44-0.37,0.42
			c-0.26-0.02-0.24-0.24-0.25-0.43C11.88,7.66,11.1,7,10,7.18C8.8,7.37,8.21,8.24,8.48,9.43c0.36,1.6,1.29,2.35,2.79,2.28
			c1.56-0.08,2.81-1.19,3-2.67c0.37-2.77-1.49-5.14-4.28-5.39c-2.06-0.19-4.05,0.2-5.92,1.09C3.28,5.11,2.65,5.7,2.08,6.37
			c-0.91,1.08-0.2,2.88,1.18,2.8c0.33-0.02,0.67,0.09,1,0.17c1.72,0.44,1.95,1.75,1.81,3.35c-0.01,0.15-0.1,0.29-0.27,0.3
			c-0.21,0.02-0.31-0.13-0.33-0.31c-0.03-0.21-0.03-0.42-0.03-0.63C5.43,10.47,4.9,9.9,3.29,9.79C2.86,9.76,2.45,9.7,2.08,9.46
			c-1.07-0.68-1.4-2.12-0.69-3.17c1.19-1.77,2.99-2.55,4.98-2.99C7.28,3.09,8.2,2.97,9.01,3.01z"/>
	</g>
	<g>
		<path d="M7.03,5.79C6.95,6.2,6.73,6.49,6.28,6.49c-0.45,0-0.74-0.28-0.74-0.7c0-0.42,0.28-0.7,0.73-0.71
			C6.72,5.08,6.94,5.37,7.03,5.79z"/>
	</g>
</g>
</svg>
