<?xml version="1.0" encoding="utf-8"?>
<!-- Generator: Adobe Illustrator 26.3.1, SVG Export Plug-In . SVG Version: 6.00 Build 0)  -->
<svg version="1.1" id="Layer_1" xmlns="http://www.w3.org/2000/svg" xmlns:xlink="http://www.w3.org/1999/xlink" x="0px" y="0px"
	 viewBox="0 0 90 30" style="enable-background:new 0 0 90 30;" xml:space="preserve">
<style type="text/css">
	.st0{fill:#FFFFFF;}
</style>
<g>
	<g>
		<path class="st0" d="M46.11,24.68c-0.07-0.18-0.2-0.52-0.39-1.03c-0.19-0.51-0.42-1.13-0.69-1.87c-0.27-0.74-0.57-1.55-0.9-2.46
			c-0.33-0.9-0.67-1.83-1.02-2.8c-0.55,0.18-1.15,0.37-1.81,0.58s-1.33,0.42-2.02,0.63c-0.69,0.21-1.36,0.43-2.02,0.64
			c-0.66,0.21-1.26,0.42-1.81,0.61c-0.32,0.91-0.64,1.84-0.97,2.79c-0.33,0.94-0.66,1.92-1.01,2.93c-0.05,0.15-0.15,0.26-0.31,0.31
			c-0.16,0.05-0.32,0.06-0.47,0.03c-0.15-0.04-0.28-0.12-0.38-0.25c-0.1-0.13-0.12-0.3-0.04-0.5c0.05-0.13,0.13-0.34,0.23-0.63
			c0.11-0.29,0.23-0.64,0.38-1.06c0.15-0.42,0.32-0.89,0.52-1.42c0.2-0.53,0.4-1.09,0.61-1.68c-0.06,0.02-0.12,0.04-0.18,0.06
			c-0.06,0.02-0.11,0.04-0.16,0.06c-0.21,0.07-0.39,0.06-0.54-0.03c-0.15-0.09-0.25-0.21-0.29-0.36c-0.05-0.15-0.04-0.3,0.04-0.46
			c0.07-0.16,0.22-0.28,0.45-0.35c0.23-0.07,0.44-0.14,0.63-0.2c0.2-0.07,0.39-0.13,0.58-0.19l4.58-12.48
			c0.07-0.19,0.17-0.34,0.28-0.45c0.12-0.11,0.24-0.16,0.37-0.16c0.12,0,0.25,0.05,0.37,0.15c0.12,0.1,0.21,0.25,0.28,0.45
			l3.35,9.44c0.14-0.06,0.29-0.12,0.44-0.17c0.15-0.05,0.31-0.11,0.47-0.17c0.15-0.06,0.3-0.05,0.44,0.04
			c0.14,0.08,0.25,0.2,0.32,0.35c0.07,0.15,0.09,0.3,0.05,0.45c-0.04,0.15-0.15,0.27-0.36,0.36c-0.11,0.05-0.24,0.1-0.39,0.15
			c-0.15,0.05-0.33,0.11-0.53,0.17c0.49,1.27,0.98,2.56,1.5,3.88s1.05,2.71,1.62,4.17c0.06,0.15,0.05,0.3-0.04,0.45
			c-0.08,0.14-0.2,0.25-0.35,0.32c-0.15,0.07-0.3,0.09-0.45,0.05C46.31,25,46.19,24.88,46.11,24.68z M39.71,7.32
			c-0.69,1.72-1.34,3.42-1.96,5.1c-0.62,1.68-1.24,3.41-1.85,5.19c0.49-0.15,0.91-0.28,1.27-0.39c0.36-0.11,0.69-0.21,1-0.3
			s0.6-0.19,0.88-0.28c0.28-0.09,0.6-0.19,0.93-0.31c0.34-0.12,0.72-0.25,1.15-0.4c0.43-0.15,0.94-0.33,1.53-0.54
			c-0.28-0.77-0.56-1.54-0.84-2.3c-0.27-0.76-0.54-1.49-0.8-2.18c-0.26-0.69-0.5-1.35-0.72-1.96C40.09,8.33,39.89,7.79,39.71,7.32z"
			/>
		<path class="st0" d="M56.59,24.39c0-0.14,0-0.37-0.01-0.69c-0.01-0.31-0.01-0.69-0.02-1.14c-0.01-0.45-0.01-0.94-0.02-1.5
			c-0.01-0.55-0.01-1.14-0.01-1.75c-0.27,0.31-0.58,0.63-0.92,0.95c-0.34,0.33-0.69,0.64-1.06,0.94c-0.37,0.3-0.75,0.58-1.14,0.82
			c-0.39,0.24-0.78,0.43-1.18,0.56c-0.68,0.24-1.26,0.34-1.74,0.3c-0.48-0.04-0.88-0.17-1.18-0.41c-0.31-0.24-0.53-0.56-0.68-0.97
			c-0.14-0.41-0.21-0.87-0.21-1.38c0.01-0.51,0.08-1.05,0.22-1.63c0.14-0.58,0.34-1.15,0.61-1.74c0.34-0.76,0.8-1.49,1.36-2.2
			c0.56-0.71,1.18-1.34,1.84-1.91c0.66-0.57,1.35-1.05,2.05-1.43c0.7-0.39,1.35-0.64,1.96-0.77l-0.02-4.7c0-0.22,0.07-0.39,0.2-0.5
			c0.13-0.11,0.27-0.16,0.43-0.16c0.15,0,0.3,0.06,0.43,0.19c0.13,0.12,0.19,0.31,0.18,0.54c-0.07,2.11-0.1,4.11-0.1,5.99
			c0.01,1.88,0.03,3.7,0.08,5.46c0.04,0.12,0.04,0.26,0.02,0.43c0.02,0.97,0.05,2,0.08,3.08c0.03,1.08,0.06,2.27,0.1,3.58
			c0,0.17-0.07,0.3-0.2,0.4c-0.13,0.1-0.28,0.16-0.44,0.18s-0.31-0.01-0.45-0.1C56.66,24.75,56.59,24.6,56.59,24.39z M51.86,21.6
			c0.47-0.19,0.92-0.43,1.33-0.71c0.42-0.29,0.81-0.6,1.18-0.94c0.37-0.34,0.74-0.7,1.09-1.08c0.35-0.38,0.7-0.76,1.06-1.14
			c0-1.02,0-2.05-0.01-3.1c-0.01-1.04-0.01-2.05-0.01-3.03c-0.45,0.14-0.96,0.37-1.53,0.69c-0.57,0.32-1.14,0.72-1.71,1.19
			c-0.57,0.48-1.11,1.02-1.63,1.64c-0.52,0.62-0.95,1.29-1.29,2.01c-0.34,0.71-0.57,1.39-0.69,2.04c-0.11,0.65-0.11,1.19,0.02,1.64
			c0.12,0.45,0.37,0.75,0.73,0.91C50.77,21.89,51.25,21.84,51.86,21.6z"/>
		<path class="st0" d="M59.58,22.59c0.07-1.15,0.1-2.22,0.1-3.2c-0.01-0.98-0.04-1.9-0.11-2.76c-0.07-0.86-0.15-1.69-0.26-2.48
			c-0.11-0.8-0.23-1.59-0.36-2.39c-0.04-0.23,0-0.42,0.12-0.57c0.11-0.15,0.25-0.25,0.4-0.29c0.15-0.04,0.31-0.01,0.45,0.09
			c0.15,0.1,0.23,0.29,0.26,0.58l0.25,2.58c0.11-0.52,0.29-1,0.54-1.43c0.25-0.43,0.55-0.8,0.87-1.11c0.33-0.31,0.67-0.55,1.04-0.72
			c0.37-0.17,0.72-0.26,1.07-0.26c0.4,0,0.76,0.13,1.06,0.39c0.3,0.26,0.56,0.59,0.77,0.98c0.21,0.39,0.39,0.82,0.53,1.27
			c0.14,0.46,0.26,0.88,0.36,1.27c0.13-0.37,0.27-0.79,0.43-1.27c0.15-0.48,0.34-0.94,0.56-1.37c0.22-0.43,0.48-0.8,0.78-1.11
			c0.3-0.31,0.68-0.47,1.13-0.5c0.65-0.04,1.18,0.14,1.58,0.52c0.4,0.38,0.71,0.9,0.93,1.56c0.23,0.66,0.39,1.41,0.48,2.26
			c0.09,0.85,0.16,1.72,0.19,2.63c0.03,0.9,0.05,1.8,0.05,2.68c0.01,0.88,0.04,1.68,0.1,2.38c0.01,0.15-0.05,0.29-0.18,0.42
			c-0.13,0.13-0.28,0.2-0.44,0.22c-0.17,0.02-0.32-0.01-0.45-0.11c-0.14-0.09-0.2-0.28-0.2-0.57c0-0.57,0.01-1.22,0.02-1.96
			c0.01-0.74,0.01-1.5,0-2.28s-0.05-1.55-0.11-2.31c-0.06-0.76-0.16-1.44-0.29-2.04c-0.14-0.6-0.32-1.09-0.54-1.48
			c-0.23-0.39-0.52-0.6-0.87-0.63c-0.29-0.02-0.55,0.08-0.79,0.32c-0.24,0.24-0.47,0.57-0.67,0.99c-0.2,0.42-0.38,0.92-0.53,1.49
			c-0.15,0.57-0.27,1.17-0.37,1.81c-0.1,0.64-0.16,1.29-0.2,1.96c-0.04,0.67-0.06,1.31-0.04,1.93c0,0.18-0.07,0.31-0.2,0.41
			c-0.13,0.1-0.28,0.14-0.44,0.14c-0.17,0-0.32-0.06-0.46-0.17c-0.14-0.11-0.22-0.3-0.23-0.56c0-1.69-0.06-3.05-0.19-4.09
			c-0.12-1.04-0.28-1.84-0.48-2.41c-0.2-0.57-0.42-0.95-0.67-1.15c-0.25-0.2-0.5-0.3-0.75-0.31c-0.38-0.01-0.71,0.1-1.01,0.33
			c-0.29,0.23-0.55,0.54-0.77,0.93c-0.22,0.39-0.42,0.82-0.58,1.31c-0.16,0.49-0.29,0.97-0.38,1.45c-0.1,0.48-0.17,0.93-0.21,1.35
			c-0.05,0.42-0.07,0.77-0.05,1.04c0.01,0.39,0.02,0.76,0.02,1.1c0,0.34,0,0.68,0,1c0,0.32,0,0.64,0,0.95
			c0,0.31,0.01,0.63,0.02,0.95c0.01,0.26-0.05,0.46-0.19,0.59c-0.14,0.13-0.29,0.2-0.45,0.22c-0.17,0.02-0.31-0.02-0.45-0.12
			C59.63,22.94,59.57,22.79,59.58,22.59z"/>
		<path class="st0" d="M74.45,8.24c-0.18-0.14-0.26-0.3-0.25-0.47c0.01-0.17,0.07-0.32,0.18-0.45c0.11-0.13,0.25-0.22,0.42-0.26
			c0.17-0.04,0.34,0,0.49,0.12c0.18,0.14,0.26,0.3,0.26,0.47c-0.01,0.17-0.06,0.32-0.18,0.45c-0.11,0.13-0.25,0.22-0.43,0.26
			C74.77,8.4,74.6,8.36,74.45,8.24z M74.22,22.89c0-0.28,0-0.72-0.01-1.3c-0.01-0.58-0.01-1.24-0.01-1.99c0-0.74,0-1.53,0-2.36
			c0-0.83,0-1.63,0-2.41c0-0.78,0-1.5,0-2.16s0-1.2,0-1.62c0-0.23,0.07-0.39,0.2-0.5c0.13-0.11,0.28-0.16,0.44-0.16
			s0.3,0.06,0.43,0.19c0.13,0.12,0.18,0.31,0.17,0.54c-0.02,0.52-0.04,1.01-0.06,1.46c-0.02,0.45-0.03,0.91-0.03,1.37
			s0,0.96,0.01,1.5c0.01,0.53,0.01,1.15,0.03,1.84c0.01,0.69,0.03,1.49,0.05,2.39c0.02,0.9,0.05,1.96,0.07,3.17
			c0,0.17-0.06,0.3-0.2,0.4c-0.13,0.1-0.28,0.16-0.44,0.18c-0.16,0.02-0.31-0.02-0.45-0.1C74.29,23.26,74.22,23.11,74.22,22.89z"/>
		<path class="st0" d="M77.01,22.77c-0.01-0.28-0.01-0.72,0-1.31c0.01-0.59,0.03-1.26,0.04-2.01c0.02-0.75,0.04-1.55,0.05-2.39
			s0.04-1.66,0.05-2.46c0.02-0.8,0.03-1.53,0.04-2.2c0.01-0.67,0.02-1.21,0.02-1.63c0-0.23,0.06-0.39,0.2-0.5
			c0.13-0.11,0.27-0.16,0.43-0.16c0.15,0,0.3,0.06,0.43,0.19c0.13,0.12,0.19,0.31,0.18,0.54c-0.01,0.18-0.03,0.42-0.04,0.71
			c-0.02,0.3-0.04,0.61-0.06,0.93c-0.02,0.32-0.05,0.62-0.06,0.9c-0.02,0.28-0.03,0.48-0.03,0.61c0.64-1.16,1.32-2,2.05-2.52
			c0.72-0.52,1.45-0.83,2.17-0.94c0.57-0.08,1.04,0,1.42,0.25c0.37,0.25,0.67,0.61,0.9,1.08c0.23,0.47,0.39,1.02,0.49,1.66
			c0.1,0.64,0.16,1.31,0.18,2.01c0.02,0.71,0.01,1.42-0.04,2.15c-0.04,0.72-0.09,1.4-0.16,2.04c-0.07,0.64-0.13,1.2-0.19,1.69
			c-0.06,0.49-0.09,0.86-0.11,1.11c-0.01,0.23-0.1,0.38-0.25,0.47c-0.15,0.09-0.31,0.12-0.48,0.1c-0.17-0.02-0.31-0.1-0.44-0.24
			c-0.12-0.14-0.17-0.31-0.13-0.53c0.11-0.61,0.22-1.28,0.33-2.04c0.11-0.75,0.2-1.52,0.26-2.31c0.06-0.78,0.09-1.55,0.1-2.29
			c0.01-0.74-0.04-1.4-0.13-1.99c-0.09-0.58-0.25-1.05-0.46-1.4c-0.21-0.35-0.51-0.53-0.87-0.53c-0.45,0-0.88,0.1-1.29,0.3
			c-0.41,0.2-0.79,0.47-1.14,0.82c-0.35,0.34-0.67,0.74-0.94,1.19c-0.28,0.45-0.52,0.92-0.72,1.41c-0.2,0.49-0.36,0.98-0.47,1.48
			c-0.11,0.5-0.18,0.97-0.19,1.41c-0.01,0.24-0.02,0.47-0.02,0.71s0,0.52,0.01,0.84c0.01,0.32,0.01,0.71,0.03,1.16
			c0.01,0.45,0.03,1,0.05,1.64c0,0.17-0.06,0.3-0.18,0.4c-0.12,0.1-0.25,0.16-0.4,0.18c-0.15,0.02-0.29-0.01-0.42-0.1
			C77.08,23.13,77.01,22.98,77.01,22.77z"/>
	</g>
	<g>
		<g>
			<path class="st0" d="M18.87,5.95c5.56-0.01,9.4,2.71,10.45,7.42c1.39,6.22-2.88,9.5-7.13,9.29c-3.54-0.18-6.17-3.64-5.44-7.11
				c0.4-1.92,2.18-3.21,4.41-3.21c2.08,0,3.76,1.3,4.13,3.22c0.06,0.29,0.06,0.61,0.03,0.91c-0.04,0.4-0.19,0.78-0.67,0.75
				c-0.46-0.03-0.43-0.42-0.46-0.77c-0.17-2.13-1.58-3.32-3.55-3c-2.15,0.35-3.21,1.91-2.73,4.03c0.65,2.87,2.31,4.23,5.01,4.09
				c2.8-0.14,5.04-2.13,5.39-4.8c0.66-4.98-2.67-9.22-7.68-9.67c-3.7-0.33-7.26,0.36-10.62,1.96c-1.42,0.68-2.56,1.73-3.58,2.94
				c-1.63,1.94-0.36,5.17,2.12,5.02c0.59-0.04,1.2,0.16,1.79,0.31c3.09,0.79,3.5,3.15,3.26,6.02c-0.02,0.28-0.19,0.52-0.49,0.55
				c-0.38,0.03-0.55-0.23-0.6-0.55c-0.05-0.37-0.05-0.76-0.05-1.13c-0.02-2.86-0.97-3.88-3.86-4.07c-0.77-0.05-1.5-0.17-2.16-0.59
				c-1.92-1.22-2.5-3.8-1.24-5.7c2.13-3.18,5.36-4.58,8.94-5.37C15.77,6.1,17.43,5.88,18.87,5.95z"/>
		</g>
		<g>
			<path class="st0" d="M15.33,10.94c-0.15,0.75-0.55,1.27-1.35,1.27c-0.8,0-1.32-0.51-1.32-1.26c0-0.75,0.51-1.26,1.31-1.27
				C14.77,9.67,15.17,10.19,15.33,10.94z"/>
		</g>
	</g>
</g>
</svg>
