<?xml version="1.0" encoding="utf-8"?>
<!-- Generator: Adobe Illustrator 26.3.1, SVG Export Plug-In . SVG Version: 6.00 Build 0)  -->
<svg version="1.1" id="Layer_1" xmlns="http://www.w3.org/2000/svg" xmlns:xlink="http://www.w3.org/1999/xlink" x="0px" y="0px"
	 viewBox="0 0 90 30" style="enable-background:new 0 0 90 30;" xml:space="preserve">
<style type="text/css">
	.st0{fill:#121212;}
	.st1{fill:#171717;}
</style>
<g>
	<g>
		<g>
			<path class="st0" d="M13.02,6.92c4.49-0.01,7.58,2.18,8.44,5.99c1.12,5.02-2.32,7.67-5.75,7.5c-2.86-0.14-4.98-2.94-4.39-5.74
				c0.33-1.55,1.76-2.59,3.56-2.59c1.68,0,3.03,1.05,3.33,2.6c0.05,0.24,0.05,0.49,0.02,0.73c-0.03,0.32-0.15,0.63-0.54,0.61
				c-0.37-0.02-0.35-0.34-0.37-0.62c-0.14-1.72-1.28-2.68-2.86-2.42c-1.74,0.28-2.59,1.54-2.2,3.26c0.53,2.32,1.87,3.41,4.04,3.3
				c2.26-0.11,4.07-1.72,4.35-3.87c0.53-4.02-2.15-7.44-6.2-7.8c-2.99-0.27-5.86,0.29-8.57,1.58C4.72,9.97,3.8,10.82,2.98,11.8
				c-1.31,1.57-0.29,4.17,1.71,4.05c0.47-0.03,0.97,0.13,1.44,0.25c2.49,0.64,2.83,2.54,2.63,4.86c-0.02,0.22-0.15,0.42-0.4,0.44
				c-0.3,0.03-0.45-0.19-0.48-0.45c-0.04-0.3-0.04-0.61-0.04-0.92c-0.01-2.3-0.78-3.13-3.11-3.29c-0.62-0.04-1.21-0.14-1.75-0.48
				c-1.55-0.99-2.02-3.07-1-4.6C3.7,9.1,6.31,7.97,9.2,7.33C10.51,7.04,11.85,6.87,13.02,6.92z"/>
		</g>
		<g>
			<path class="st1" d="M10.16,10.95c-0.12,0.6-0.44,1.03-1.09,1.03C8.42,11.97,8,11.56,8,10.96c0-0.61,0.41-1.02,1.06-1.03
				C9.71,9.93,10.03,10.35,10.16,10.95z"/>
		</g>
	</g>
	<g>
		<path d="M33.82,19.62c0-0.11,0-0.3-0.01-0.58c0-0.28-0.01-0.61-0.01-1c0-0.39,0-0.82-0.01-1.31c0-0.48-0.01-0.98-0.01-1.49
			c0-0.51,0-1.03-0.01-1.56c0-0.53-0.01-1.03-0.01-1.51c-0.36,0.05-0.78,0.13-1.24,0.24c-0.46,0.11-0.96,0.24-1.5,0.4
			c-0.54,0.16-1.1,0.36-1.69,0.6c-0.59,0.23-1.2,0.51-1.82,0.83c0.01,0.35,0.02,0.76,0.03,1.23c0.01,0.46,0.02,0.95,0.03,1.47
			c0.01,0.52,0.02,1.05,0.03,1.58c0.01,0.54,0.02,1.06,0.04,1.56c0,0.12-0.05,0.22-0.15,0.3c-0.1,0.08-0.21,0.12-0.32,0.13
			c-0.12,0.01-0.23-0.01-0.33-0.07s-0.15-0.17-0.15-0.33c0-0.12,0-0.38-0.01-0.76c0-0.38-0.01-0.83-0.01-1.34
			c0-0.51-0.01-1.06-0.01-1.65c0-0.59-0.01-1.15-0.01-1.68c-0.01,0.01-0.02,0.01-0.03,0.01c-0.01,0-0.02,0-0.03,0.01
			c-0.14,0.08-0.26,0.09-0.36,0.03c-0.1-0.06-0.16-0.16-0.19-0.29c-0.03-0.13-0.01-0.26,0.04-0.4c0.05-0.14,0.16-0.25,0.32-0.32
			c0.04-0.02,0.08-0.04,0.12-0.05c0.04-0.02,0.08-0.04,0.12-0.05c0-0.75,0-1.51-0.01-2.28c0-0.77-0.01-1.49-0.01-2.15s0-1.25,0-1.76
			c0-0.51,0-0.89,0-1.14c0-0.17,0.05-0.29,0.15-0.37c0.1-0.08,0.2-0.12,0.32-0.12c0.11,0,0.22,0.05,0.32,0.14
			c0.1,0.09,0.14,0.23,0.13,0.4c-0.03,0.71-0.05,1.36-0.06,1.97c-0.01,0.61-0.02,1.19-0.03,1.74c0,0.55,0,1.09,0,1.61
			c0,0.52,0.02,1.05,0.03,1.59c0.34-0.15,0.63-0.28,0.88-0.38c0.25-0.11,0.5-0.2,0.74-0.29c0.24-0.09,0.5-0.17,0.76-0.26
			c0.26-0.08,0.57-0.18,0.92-0.28c0.35-0.1,0.77-0.22,1.24-0.34c0.47-0.13,1.05-0.29,1.72-0.47c0-0.61,0-1.2-0.01-1.76
			c0-0.57-0.01-1.09-0.01-1.56c0-0.48,0-0.9,0-1.26s0-0.65,0-0.85c0-0.17,0.05-0.29,0.15-0.37c0.1-0.08,0.2-0.12,0.32-0.12
			c0.11,0,0.22,0.05,0.32,0.14c0.1,0.09,0.14,0.23,0.13,0.4c-0.02,0.53-0.03,1.02-0.05,1.48c-0.01,0.46-0.02,0.89-0.03,1.31
			c0,0.42-0.01,0.82-0.01,1.21c0,0.39,0,0.78,0,1.17c0.07-0.02,0.13-0.04,0.19-0.05c0.11-0.04,0.23-0.01,0.33,0.07
			c0.11,0.08,0.18,0.19,0.23,0.31c0.04,0.12,0.05,0.25,0.01,0.37c-0.04,0.12-0.13,0.21-0.29,0.25c-0.05,0.02-0.12,0.03-0.19,0.05
			c-0.08,0.01-0.16,0.03-0.26,0.05c0.01,0.45,0.02,0.97,0.03,1.55c0.01,0.58,0.02,1.2,0.03,1.86c0.01,0.66,0.03,1.34,0.05,2.04
			c0.02,0.7,0.04,1.39,0.05,2.08c0,0.12-0.05,0.22-0.15,0.3c-0.1,0.07-0.21,0.12-0.32,0.13c-0.12,0.01-0.23-0.01-0.33-0.07
			C33.87,19.89,33.82,19.78,33.82,19.62z"/>
		<path d="M39.59,18.93c-0.42,0.08-0.8,0.07-1.13-0.03c-0.33-0.1-0.61-0.26-0.85-0.48c-0.24-0.22-0.44-0.5-0.6-0.82
			c-0.16-0.33-0.29-0.68-0.39-1.06c-0.1-0.38-0.16-0.77-0.19-1.18c-0.03-0.41-0.03-0.81-0.01-1.21l-0.38,0.11
			c-0.1,0.02-0.18-0.01-0.26-0.09c-0.08-0.08-0.12-0.17-0.14-0.28c-0.02-0.11,0-0.21,0.05-0.32c0.05-0.11,0.15-0.18,0.31-0.21
			l0.46-0.15c0.11-0.4,0.27-0.8,0.45-1.2c0.19-0.4,0.41-0.77,0.67-1.11c0.26-0.34,0.56-0.63,0.91-0.86
			c0.34-0.23,0.74-0.38,1.18-0.43c0.71-0.09,1.29-0.01,1.76,0.23s0.85,0.59,1.16,1.05c0.11,0.15,0.19,0.31,0.26,0.46
			c0.07,0.16,0.1,0.31,0.1,0.45c0,0.14-0.04,0.27-0.11,0.37s-0.21,0.19-0.39,0.24l-5.11,1.47c-0.04,0.26-0.07,0.55-0.07,0.87
			c0,0.32,0.02,0.65,0.07,0.98c0.05,0.33,0.12,0.65,0.23,0.97c0.1,0.31,0.24,0.58,0.41,0.81c0.17,0.23,0.38,0.4,0.62,0.52
			c0.24,0.12,0.53,0.15,0.87,0.09c0.25-0.04,0.51-0.13,0.78-0.28c0.27-0.15,0.53-0.33,0.8-0.52c0.26-0.2,0.51-0.41,0.74-0.64
			C42,16.43,42.21,16.21,42.4,16c0.11-0.13,0.23-0.19,0.34-0.18c0.11,0.01,0.2,0.06,0.27,0.15c0.07,0.08,0.11,0.19,0.13,0.31
			c0.01,0.12-0.02,0.23-0.1,0.32c-0.21,0.26-0.45,0.51-0.72,0.77c-0.27,0.26-0.56,0.49-0.86,0.7c-0.3,0.21-0.61,0.4-0.92,0.55
			C40.22,18.78,39.91,18.88,39.59,18.93z M39.67,10.44c-0.24,0.04-0.48,0.15-0.72,0.33c-0.24,0.17-0.46,0.38-0.67,0.62
			c-0.21,0.24-0.38,0.5-0.52,0.77c-0.14,0.27-0.23,0.53-0.27,0.77l4.48-1.31c-0.02-0.09-0.08-0.21-0.17-0.38
			c-0.1-0.16-0.24-0.32-0.43-0.46c-0.19-0.15-0.43-0.26-0.71-0.34C40.38,10.35,40.05,10.36,39.67,10.44z"/>
		<path d="M44.03,19.02c-0.02-0.21-0.04-0.54-0.05-0.97c-0.02-0.44-0.04-0.94-0.05-1.5c-0.02-0.56-0.04-1.16-0.05-1.78
			c-0.02-0.63-0.04-1.24-0.05-1.83c-0.02-0.59-0.04-1.14-0.05-1.64c-0.02-0.5-0.04-0.9-0.05-1.21c-0.01-0.17,0.04-0.3,0.13-0.38
			c0.1-0.09,0.2-0.13,0.32-0.13c0.11,0,0.22,0.04,0.32,0.13c0.1,0.08,0.15,0.21,0.15,0.39c0,0.13,0,0.29,0,0.48s0,0.38,0,0.57
			c0,0.19,0,0.38,0.01,0.55c0,0.17,0.01,0.31,0.01,0.4c0.19-0.38,0.43-0.72,0.71-1.01c0.28-0.3,0.58-0.55,0.9-0.75
			c0.32-0.2,0.66-0.36,1.02-0.46c0.36-0.11,0.72-0.17,1.08-0.19c0.38-0.02,0.75,0.06,1.11,0.23c0.36,0.17,0.68,0.45,0.97,0.85
			c0.1,0.13,0.13,0.25,0.09,0.34c-0.04,0.1-0.1,0.17-0.19,0.23c-0.09,0.05-0.19,0.08-0.3,0.07c-0.11-0.01-0.19-0.05-0.24-0.13
			c-0.17-0.26-0.38-0.44-0.62-0.56c-0.25-0.11-0.52-0.16-0.81-0.15c-0.41,0.02-0.83,0.14-1.27,0.36c-0.44,0.22-0.84,0.52-1.21,0.89
			c-0.36,0.37-0.66,0.8-0.88,1.3c-0.23,0.5-0.32,1.02-0.3,1.58c0.02,0.45,0.04,1.04,0.05,1.76c0.02,0.72,0.07,1.56,0.15,2.53
			c0.01,0.11-0.03,0.21-0.11,0.3c-0.08,0.08-0.18,0.13-0.29,0.15c-0.11,0.02-0.22,0-0.32-0.06C44.09,19.29,44.04,19.18,44.03,19.02z
			"/>
		<path d="M55.22,20.11c0-0.11,0-0.28-0.01-0.51c0-0.23-0.01-0.52-0.01-0.85c0-0.33-0.01-0.7-0.01-1.11c0-0.41-0.01-0.85-0.01-1.31
			c-0.2,0.23-0.43,0.47-0.68,0.71c-0.25,0.24-0.52,0.48-0.79,0.7c-0.27,0.23-0.56,0.43-0.85,0.61c-0.29,0.18-0.58,0.32-0.88,0.42
			c-0.5,0.18-0.94,0.25-1.29,0.23c-0.36-0.03-0.65-0.13-0.88-0.31c-0.23-0.18-0.4-0.42-0.5-0.72c-0.11-0.31-0.16-0.65-0.15-1.03
			c0-0.38,0.06-0.78,0.17-1.21c0.11-0.43,0.26-0.86,0.45-1.29c0.26-0.57,0.59-1.11,1.01-1.64c0.42-0.53,0.88-1,1.37-1.43
			c0.5-0.42,1-0.78,1.53-1.07c0.52-0.29,1.01-0.48,1.46-0.58l-0.01-3.5c0-0.17,0.05-0.29,0.15-0.37c0.1-0.08,0.2-0.12,0.32-0.12
			c0.11,0,0.22,0.05,0.32,0.14c0.1,0.09,0.14,0.23,0.13,0.4c-0.05,1.57-0.08,3.06-0.07,4.46c0,1.4,0.02,2.76,0.06,4.06
			c0.03,0.09,0.03,0.19,0.01,0.32c0.02,0.73,0.04,1.49,0.06,2.29c0.02,0.8,0.05,1.69,0.07,2.67c0,0.12-0.05,0.22-0.15,0.3
			c-0.1,0.07-0.21,0.12-0.33,0.13c-0.12,0.01-0.23-0.01-0.33-0.07C55.27,20.38,55.22,20.27,55.22,20.11z M51.7,18.03
			c0.35-0.14,0.68-0.32,0.99-0.53c0.31-0.21,0.6-0.44,0.88-0.7c0.28-0.25,0.55-0.52,0.81-0.8c0.26-0.28,0.52-0.57,0.79-0.85
			c0-0.76,0-1.53-0.01-2.31c0-0.78-0.01-1.53-0.01-2.25c-0.34,0.11-0.72,0.28-1.14,0.52c-0.42,0.24-0.85,0.54-1.27,0.89
			c-0.42,0.35-0.83,0.76-1.21,1.22c-0.38,0.46-0.71,0.96-0.96,1.5c-0.26,0.53-0.43,1.04-0.51,1.52c-0.08,0.48-0.08,0.89,0.01,1.22
			c0.09,0.33,0.27,0.56,0.54,0.68C50.88,18.25,51.24,18.22,51.7,18.03z"/>
		<path d="M69.37,19.62c0-0.11,0-0.3-0.01-0.58c0-0.28-0.01-0.61-0.01-1c0-0.39,0-0.82-0.01-1.31c0-0.48-0.01-0.98-0.01-1.49
			c0-0.51,0-1.03-0.01-1.56c0-0.53-0.01-1.03-0.01-1.51c-0.36,0.05-0.78,0.13-1.24,0.24c-0.46,0.11-0.96,0.24-1.5,0.4
			c-0.54,0.16-1.1,0.36-1.69,0.6c-0.59,0.23-1.2,0.51-1.82,0.83c0.01,0.35,0.02,0.76,0.03,1.23c0.01,0.46,0.02,0.95,0.03,1.47
			c0.01,0.52,0.02,1.05,0.03,1.58c0.01,0.54,0.02,1.06,0.04,1.56c0,0.12-0.05,0.22-0.15,0.3c-0.1,0.08-0.21,0.12-0.32,0.13
			c-0.12,0.01-0.23-0.01-0.33-0.07c-0.1-0.06-0.15-0.17-0.15-0.33c0-0.12,0-0.38-0.01-0.76c0-0.38-0.01-0.83-0.01-1.34
			c0-0.51-0.01-1.06-0.01-1.65c0-0.59-0.01-1.15-0.01-1.68c-0.01,0.01-0.02,0.01-0.03,0.01s-0.02,0-0.03,0.01
			c-0.14,0.08-0.26,0.09-0.36,0.03c-0.1-0.06-0.16-0.16-0.19-0.29c-0.03-0.13-0.01-0.26,0.04-0.4c0.05-0.14,0.16-0.25,0.32-0.32
			c0.04-0.02,0.08-0.04,0.12-0.05c0.04-0.02,0.08-0.04,0.12-0.05c0-0.75,0-1.51-0.01-2.28c0-0.77-0.01-1.49-0.01-2.15s0-1.25,0-1.76
			c0-0.51,0-0.89,0-1.14c0-0.17,0.05-0.29,0.15-0.37c0.1-0.08,0.2-0.12,0.32-0.12c0.11,0,0.22,0.05,0.32,0.14
			c0.1,0.09,0.14,0.23,0.13,0.4c-0.03,0.71-0.05,1.36-0.06,1.97c-0.01,0.61-0.02,1.19-0.03,1.74c0,0.55,0,1.09,0,1.61
			c0,0.52,0.02,1.05,0.03,1.59c0.34-0.15,0.63-0.28,0.88-0.38c0.25-0.11,0.5-0.2,0.74-0.29c0.24-0.09,0.5-0.17,0.76-0.26
			c0.26-0.08,0.57-0.18,0.92-0.28c0.35-0.1,0.77-0.22,1.24-0.34c0.47-0.13,1.05-0.29,1.72-0.47c0-0.61,0-1.2-0.01-1.76
			c0-0.57-0.01-1.09-0.01-1.56c0-0.48,0-0.9,0-1.26s0-0.65,0-0.85c0-0.17,0.05-0.29,0.15-0.37c0.1-0.08,0.2-0.12,0.32-0.12
			c0.11,0,0.22,0.05,0.32,0.14c0.1,0.09,0.14,0.23,0.13,0.4c-0.02,0.53-0.03,1.02-0.05,1.48c-0.01,0.46-0.02,0.89-0.03,1.31
			c0,0.42-0.01,0.82-0.01,1.21c0,0.39,0,0.78,0,1.17c0.07-0.02,0.13-0.04,0.19-0.05c0.11-0.04,0.23-0.01,0.33,0.07
			c0.11,0.08,0.18,0.19,0.23,0.31c0.04,0.12,0.05,0.25,0.01,0.37c-0.04,0.12-0.13,0.21-0.29,0.25c-0.05,0.02-0.12,0.03-0.19,0.05
			c-0.08,0.01-0.16,0.03-0.26,0.05c0.01,0.45,0.02,0.97,0.03,1.55c0.01,0.58,0.02,1.2,0.03,1.86c0.01,0.66,0.03,1.34,0.05,2.04
			c0.02,0.7,0.04,1.39,0.05,2.08c0,0.12-0.05,0.22-0.15,0.3c-0.1,0.07-0.21,0.12-0.32,0.13c-0.12,0.01-0.23-0.01-0.33-0.07
			C69.42,19.89,69.37,19.78,69.37,19.62z"/>
		<path d="M75.14,18.93c-0.42,0.08-0.8,0.07-1.13-0.03c-0.33-0.1-0.61-0.26-0.85-0.48c-0.24-0.22-0.44-0.5-0.6-0.82
			c-0.16-0.33-0.29-0.68-0.39-1.06c-0.1-0.38-0.16-0.77-0.19-1.18c-0.03-0.41-0.03-0.81-0.01-1.21l-0.38,0.11
			c-0.1,0.02-0.18-0.01-0.26-0.09c-0.08-0.08-0.12-0.17-0.14-0.28c-0.02-0.11,0-0.21,0.05-0.32c0.05-0.11,0.15-0.18,0.31-0.21
			l0.46-0.15c0.11-0.4,0.27-0.8,0.45-1.2c0.19-0.4,0.41-0.77,0.67-1.11c0.26-0.34,0.56-0.63,0.91-0.86
			c0.34-0.23,0.74-0.38,1.18-0.43c0.71-0.09,1.29-0.01,1.76,0.23s0.85,0.59,1.16,1.05c0.11,0.15,0.19,0.31,0.26,0.46
			c0.07,0.16,0.1,0.31,0.1,0.45c0,0.14-0.04,0.27-0.11,0.37s-0.21,0.19-0.39,0.24l-5.11,1.47c-0.04,0.26-0.07,0.55-0.07,0.87
			c0,0.32,0.02,0.65,0.07,0.98c0.05,0.33,0.12,0.65,0.23,0.97c0.1,0.31,0.24,0.58,0.41,0.81c0.17,0.23,0.38,0.4,0.62,0.52
			c0.24,0.12,0.53,0.15,0.87,0.09c0.25-0.04,0.51-0.13,0.78-0.28c0.27-0.15,0.53-0.33,0.8-0.52c0.26-0.2,0.51-0.41,0.74-0.64
			c0.23-0.23,0.44-0.45,0.63-0.66c0.11-0.13,0.23-0.19,0.34-0.18c0.11,0.01,0.2,0.06,0.27,0.15c0.07,0.08,0.11,0.19,0.13,0.31
			c0.01,0.12-0.02,0.23-0.1,0.32c-0.21,0.26-0.45,0.51-0.72,0.77c-0.27,0.26-0.56,0.49-0.86,0.7c-0.3,0.21-0.61,0.4-0.92,0.55
			C75.78,18.78,75.46,18.88,75.14,18.93z M75.22,10.44c-0.24,0.04-0.48,0.15-0.72,0.33c-0.24,0.17-0.46,0.38-0.67,0.62
			c-0.21,0.24-0.38,0.5-0.52,0.77c-0.14,0.27-0.23,0.53-0.27,0.77l4.48-1.31c-0.02-0.09-0.08-0.21-0.17-0.38
			c-0.1-0.16-0.24-0.32-0.43-0.46c-0.19-0.15-0.43-0.26-0.71-0.34C75.93,10.35,75.6,10.36,75.22,10.44z"/>
		<path d="M79.48,19c0-0.16,0-0.44-0.01-0.84c0-0.4-0.01-0.88-0.01-1.44c0-0.56-0.01-1.17-0.01-1.84s0-1.35-0.01-2.06
			c0-0.7-0.01-1.4-0.01-2.09c0-0.69,0-1.33-0.01-1.92c0-0.59-0.01-1.11-0.01-1.56c0-0.45,0-0.79,0-1.02c0-0.17,0.05-0.29,0.15-0.37
			s0.2-0.12,0.32-0.12c0.11,0,0.22,0.05,0.32,0.14c0.1,0.09,0.14,0.23,0.13,0.4c-0.03,0.83-0.05,1.59-0.06,2.27
			c-0.01,0.69-0.02,1.34-0.02,1.97c0,0.63,0,1.24,0.01,1.85c0.01,0.61,0.02,1.24,0.04,1.91c0.02,0.67,0.04,1.38,0.05,2.14
			c0.02,0.76,0.04,1.61,0.07,2.55c0,0.12-0.05,0.22-0.15,0.3c-0.1,0.07-0.21,0.12-0.32,0.13c-0.12,0.01-0.23-0.01-0.33-0.07
			C79.53,19.27,79.48,19.16,79.48,19z"/>
		<path d="M82.24,11.51c0.7-0.58,1.35-1.03,1.96-1.33c0.61-0.3,1.26-0.45,1.95-0.44c0.34,0,0.66,0.07,0.95,0.21
			c0.29,0.14,0.53,0.33,0.74,0.58c0.21,0.24,0.37,0.53,0.5,0.86c0.12,0.33,0.19,0.69,0.21,1.08c0.04,0.9-0.1,1.73-0.44,2.48
			c-0.34,0.75-0.8,1.41-1.39,1.98c-0.58,0.57-1.26,1.02-2.02,1.37c-0.76,0.35-1.54,0.58-2.33,0.68l-0.01,5.21
			c0,0.17-0.05,0.29-0.15,0.37c-0.1,0.08-0.2,0.12-0.32,0.12c-0.12,0-0.22-0.05-0.32-0.14c-0.1-0.09-0.14-0.23-0.13-0.4
			c0.03-0.78,0.04-1.61,0.05-2.49c0.01-0.88,0.01-1.76,0-2.64c-0.01-0.88-0.02-1.72-0.03-2.53c-0.01-0.81-0.03-1.55-0.05-2.2
			c-0.03-0.09-0.03-0.19-0.01-0.32c-0.01-0.36-0.02-0.68-0.02-0.96c0-0.28-0.01-0.56-0.02-0.86c-0.01-0.29-0.02-0.61-0.03-0.95
			c-0.01-0.34-0.02-0.75-0.03-1.24c0-0.11,0.05-0.21,0.14-0.29s0.2-0.13,0.31-0.14c0.11-0.01,0.22,0.01,0.32,0.07
			c0.1,0.06,0.15,0.17,0.15,0.33V11.51z M82.36,18.12c0.64-0.11,1.28-0.31,1.92-0.6c0.64-0.3,1.22-0.68,1.72-1.15
			c0.51-0.47,0.92-1.01,1.24-1.63c0.32-0.62,0.47-1.3,0.46-2.06c-0.01-0.61-0.16-1.11-0.45-1.49c-0.29-0.38-0.69-0.58-1.21-0.59
			c-0.37,0-0.73,0.06-1.08,0.17s-0.69,0.26-1.01,0.45c-0.32,0.19-0.63,0.42-0.92,0.68c-0.29,0.27-0.55,0.55-0.78,0.85
			c0,0.38,0,0.8,0.01,1.27c0.01,0.47,0.02,0.95,0.03,1.43c0.01,0.49,0.02,0.96,0.03,1.43C82.35,17.35,82.36,17.76,82.36,18.12z"/>
	</g>
</g>
</svg>
