<?xml version="1.0" encoding="utf-8"?>
<!-- Generator: Adobe Illustrator 26.3.1, SVG Export Plug-In . SVG Version: 6.00 Build 0)  -->
<svg version="1.1" id="Layer_1" xmlns="http://www.w3.org/2000/svg" xmlns:xlink="http://www.w3.org/1999/xlink" x="0px" y="0px"
	 viewBox="0 0 512 512" style="enable-background:new 0 0 512 512;" xml:space="preserve">
<style type="text/css">
	.st0{fill:#FFFFFF;}
</style>
<g>
	<g>
		<path class="st0" d="M291.12,78.84c109.99-0.13,185.8,53.52,206.69,146.77c27.54,122.95-56.9,187.87-140.91,183.63
			c-70.09-3.53-122.02-71.96-107.6-140.64c7.97-37.96,43.15-63.56,87.3-63.52c41.19,0.04,74.26,25.68,81.58,63.67
			c1.12,5.81,1.15,12,0.6,17.91c-0.73,7.9-3.69,15.51-13.3,14.87c-9.12-0.61-8.5-8.36-9.05-15.3
			c-3.31-42.12-31.24-65.61-70.14-59.32c-42.56,6.88-63.46,37.8-53.94,79.77c12.87,56.74,45.75,83.57,99.1,80.9
			c55.37-2.78,99.6-42.15,106.58-94.88c13.03-98.42-52.74-182.32-151.96-191.22c-73.24-6.57-143.61,7.03-210.05,38.69
			c-28.17,13.42-50.67,34.15-70.76,58.14c-32.15,38.41-7.04,102.28,41.95,99.27c11.62-0.72,23.75,3.15,35.33,6.11
			c61.07,15.62,69.27,62.22,64.38,118.97c-0.47,5.47-3.67,10.27-9.75,10.81c-7.46,0.66-10.96-4.62-11.84-10.95
			c-1.02-7.38-1.03-14.94-1.07-22.42c-0.33-56.47-19.14-76.77-76.28-80.53c-15.31-1.01-29.59-3.31-42.76-11.72
			C7.34,283.63-4.3,232.65,20.78,195.2c42.15-62.95,106.01-90.65,176.7-106.28C229.78,81.78,262.54,77.54,291.12,78.84z"/>
	</g>
	<g>
		<path class="st0" d="M221,177.47c-3.04,14.75-10.79,25.16-26.73,25.17c-15.83,0.01-26.14-10-26.2-24.91
			c-0.06-14.88,10.11-25,25.97-25.12C209.99,152.49,217.84,162.8,221,177.47z"/>
	</g>
</g>
</svg>
